<?xml version="1.0" encoding="utf-8"?>
<!-- Generator: Adobe Illustrator 19.0.0, SVG Export Plug-In . SVG Version: 6.00 Build 0)  -->
<svg version="1.1" id="Capa_1" xmlns="http://www.w3.org/2000/svg" xmlns:xlink="http://www.w3.org/1999/xlink" x="0px" y="0px"
	 viewBox="32 -232 1024 1024" style="enable-background:new 32 -232 1024 1024;" xml:space="preserve">
<style type="text/css">
	.st0{fill:#FFFFFF;}
</style>
<path class="st0" d="M828.4-232H259.6C134.4-232,32-129.6,32-4.4v568.9C32,689.6,134.4,792,259.6,792h568.9
	c125.2,0,227.6-102.4,227.6-227.6V-4.4C1056-129.6,953.6-232,828.4-232z M544,685.4c-47.1,0-85.3-38.2-85.3-85.3
	c0-47.1,38.2-85.3,85.3-85.3s85.3,38.2,85.3,85.3C629.3,647.2,591.1,685.4,544,685.4z M685.9,28.3c-5.3,78.4-32,233.5-36.6,312
	C646,397.1,596.6,443.5,544,443.5c-52.6,0-102-46.3-105.3-103.2c-4.6-78.5-31.2-233.6-36.6-312c-5.8-84.7,63.5-153.7,141.9-153.7
	C622.4-125.4,691.6-56.4,685.9,28.3L685.9,28.3z"/>
</svg>
