<svg class="svg-icon" style="width: 1em; height: 1em;vertical-align: middle;fill: currentColor;overflow: hidden;" viewBox="0 0 1024 1024" version="1.1" xmlns="http://www.w3.org/2000/svg"><path d="M1006.933333 665.6v-136.533333h-136.533333c0 20.48-3.413333 40.96-10.24 61.44l-30.72-13.653334c3.413333-20.48 6.826667-44.373333 6.826667-64.853333 0-177.493333-146.773333-324.266667-324.266667-324.266667S187.733333 334.506667 187.733333 512s146.773333 324.266667 324.266667 324.266667c133.12 0 245.76-78.506667 296.96-194.56l-30.72-13.653334c-44.373333 102.4-146.773333 170.666667-266.24 170.666667-160.426667 0-290.133333-129.706667-290.133333-290.133333s129.706667-290.133333 290.133333-290.133334 290.133333 129.706667 290.133333 290.133334c0 17.066667-3.413333 34.133333-6.826666 51.2l-30.72-13.653334c0-6.826667 3.413333-13.653333 3.413333-20.48H716.8h-3.413333l-3.413334-3.413333c-3.413333-3.413333-6.826667-6.826667-6.826666-13.653333 0-10.24 6.826667-17.066667 17.066666-17.066667h51.2c-6.826667-126.293333-109.226667-228.693333-238.933333-238.933333V307.2c0 10.24-6.826667 17.066667-17.066667 17.066667s-20.48-6.826667-20.48-17.066667V256c-126.293333 6.826667-228.693333 109.226667-238.933333 238.933333H307.2c10.24 0 17.066667 6.826667 17.066667 17.066667s-6.826667 17.066667-17.066667 17.066667H256c6.826667 126.293333 109.226667 228.693333 238.933333 238.933333V716.8c0-10.24 6.826667-17.066667 17.066667-17.066667s17.066667 6.826667 17.066667 17.066667v51.2c95.573333-6.826667 177.493333-64.853333 215.04-150.186667l-133.12-58.026666c-10.24-3.413333-13.653333-13.653333-10.24-23.893334 3.413333-10.24 13.653333-13.653333 23.893333-10.24l133.12 58.026667 30.72 13.653333 30.72 13.653334 30.72 13.653333 153.6 64.853333 3.413333-23.893333z m-443.733333-85.333333c0 10.24-6.826667 17.066667-17.066667 17.066666s-17.066667-6.826667-17.066666-17.066666v-51.2H443.733333c-6.826667 0-10.24-3.413333-13.653333-6.826667s-3.413333-10.24 0-17.066667l68.266667-136.533333c3.413333-6.826667 13.653333-10.24 23.893333-6.826667 6.826667 3.413333 10.24 13.653333 6.826667 23.893334l-54.613334 112.64h58.026667V477.866667c0-10.24 6.826667-17.066667 17.066667-17.066667s17.066667 6.826667 17.066666 17.066667v102.4z" fill="" /><path d="M153.6 529.066667h-136.533333V955.733333c0 10.24 6.826667 17.066667 17.066666 17.066667h460.8v-102.4c-184.32-10.24-331.093333-157.013333-341.333333-341.333333zM529.066667 870.4v102.4H989.866667c10.24 0 17.066667-6.826667 17.066666-17.066667v-228.693333l-167.253333-71.68c-54.613333 122.88-170.666667 208.213333-310.613333 215.04zM494.933333 153.6v-102.4H34.133333c-10.24 0-17.066667 6.826667-17.066666 17.066667v426.666666h136.533333c10.24-184.32 157.013333-331.093333 341.333333-341.333333zM870.4 494.933333h136.533333V68.266667c0-10.24-6.826667-17.066667-17.066666-17.066667H529.066667v102.4c184.32 10.24 331.093333 157.013333 341.333333 341.333333z" fill="" /></svg>