<?xml version="1.0" encoding="UTF-8"?>
<svg xmlns="http://www.w3.org/2000/svg" width="360" height="216" version="1.0">
  <path fill="#593eb6" d="M0 0h360v216H0z"/>
  <path fill="#fff" d="M0 103h105.488v10H0z"/>
  <path fill="#593eb6" stroke="#fff" stroke-width="10" d="M24 85h40v45H24z"/>
  <path fill="#fff" d="M254.51199 103h105.488v10h-105.488z"/>
  <path fill="#593eb6" stroke="#fff" stroke-width="10" d="M296 85h40v45h-40zm-195-5h40v56h-40zm119 0h40v56h-40z"/>
  <path fill="#fff" d="M137.8 121h83.788025v10H137.8z"/>
  <path fill="#fff" stroke="#fff" d="m179.21687 67.519005-.12213 4.597155h-2.279v5.667856h-1.9668l.12488 5.431694h-2.27901v5.397958l-2.02923.067474.21853 5.36422h-2.27901v4.959373l-1.93558-.033737-.12488 5.904012h-1.99802l-.03121 4.92564h-1.37365v5.66786h-2.52875l.31219 21.76051 2.21656-.06748.03122 5.63413h1.34243l.03121 5.43169h1.99802v5.83654h10.05257l.90535 19.53386h5.68189l.43706-19.53386h10.02135v-5.83654h1.99802l.06244-5.43169h1.3112l.03122-5.63413 2.21656.06748.31219-21.76051h-2.52875v-5.66786h-1.34242l-.03123-4.92564h-2.02923l-.12488-5.904012-1.93558.033737v-4.959373h-2.27901l.24976-5.36422-2.06046-.067474V83.21571h-2.27901l.12488-5.431694h-1.9668V72.11616h-2.279v-4.520789h-.03121z"/>
</svg>