<?xml version="1.0" encoding="utf-8"?>
<!-- Generator: Adobe Illustrator 19.0.0, SVG Export Plug-In . SVG Version: 6.00 Build 0)  -->
<svg version="1.1" id="Capa_1" xmlns="http://www.w3.org/2000/svg" xmlns:xlink="http://www.w3.org/1999/xlink" x="0px" y="0px"
	 viewBox="-471 273 16 16" style="enable-background:new -471 273 16 16;" xml:space="preserve">
<style type="text/css">
	.st0{fill:#FFFFFF;}
</style>
<rect x="-471" y="273" width="16" height="16"/>
<path class="st0" d="M-466.3,279.5l-1.4,1.4c-1.2,1.2-1.2,3.1,0,4.2c1.2,1.2,3.1,1.2,4.2,0l0,0l1.8-1.8c1.2-1.2,1.2-3.1,0-4.2
	c-0.2-0.2-0.5-0.4-0.8-0.6l-0.6,0.6c-0.1,0.1-0.1,0.1-0.2,0.2c1.1,0.3,1.7,1.4,1.4,2.5c-0.1,0.3-0.3,0.6-0.5,0.9l-1.8,1.8
	c-0.8,0.8-2,0.8-2.8,0c-0.8-0.8-0.8-2,0-2.8l0.8-0.8C-466.3,280.4-466.3,280-466.3,279.5L-466.3,279.5z"/>
<path class="st0" d="M-464.4,277.7c-1.2,1.2-1.2,3.1,0,4.2c0.2,0.2,0.5,0.4,0.8,0.6l0.8-0.8c-1.1-0.3-1.7-1.4-1.4-2.4
	c0.1-0.3,0.3-0.6,0.5-0.9l1.8-1.8c0.8-0.8,2-0.8,2.8,0c0.8,0.8,0.8,2,0,2.8l0,0l-0.8,0.8c0.1,0.4,0.2,0.9,0.1,1.3l1.4-1.4
	c1.2-1.2,1.2-3.1,0-4.2c-1.2-1.2-3.1-1.2-4.2,0L-464.4,277.7z"/>
</svg>
