<?xml version="1.0" encoding="utf-8"?>
<!-- Generator: Adobe Illustrator 19.0.0, SVG Export Plug-In . SVG Version: 6.00 Build 0)  -->
<svg version="1.1" id="Capa_1" xmlns="http://www.w3.org/2000/svg" xmlns:xlink="http://www.w3.org/1999/xlink" x="0px" y="0px"
	 viewBox="-223 25 512 512" style="enable-background:new -223 25 512 512;" xml:space="preserve">
<style type="text/css">
	.st0{fill:#FFFFFF;}
</style>
<path d="M-223,25h512v512h-512"/>
<path class="st0" d="M27,211c-46,0-69,35-69,74c0,44,29,72,68,72c43,0,73-32,73-75C99,238,65,211,27,211z M26,174c30,0,57,13,77,33
	c0-22,35-22,35,1v150c-1,10,10,16,16,9c25-25,54-128-14-187C76,124-9,133-55,165c-48,33-79,107-49,175c33,76,126,99,182,76
	c28-12,41,26,12,39c-45,19-168,17-225-82c-38-68-36-185,67-248c78-46,182-33,244,32c66,69,62,197-2,246c-28,23-71,1-71-32v-11
	c-20,20-47,32-77,32c-57,0-108-51-108-108C-82,226-31,174,26,174"/>
</svg>
