<?xml version="1.0" encoding="utf-8"?>
<!-- Generator: Adobe Illustrator 19.0.0, SVG Export Plug-In . SVG Version: 6.00 Build 0)  -->
<svg version="1.1" id="Capa_1" xmlns="http://www.w3.org/2000/svg" xmlns:xlink="http://www.w3.org/1999/xlink" x="0px" y="0px"
	 viewBox="-429 231 100 100" style="enable-background:new -429 231 100 100;" xml:space="preserve">
<g>
	<path d="M-385.7,309.3c-1,1.4-1.9,2-2.8,2c-0.6,0-0.9-0.3-1-1c0-0.1,0-0.7,0-1.7v-17.7h-4.4v19c0,1.7,0.1,2.8,0.4,3.6
		c0.4,1.2,1.4,1.8,2.8,1.8c1.6,0,3.3-1,5-3v2.6h4.4v-24.1h-4.4V309.3z M-409.7,287.2h5.1V315h4.9v-27.8h5.2v-4.5h-15.2V287.2z
		 M-380,266.2c1.4,0,2.1-1.1,2.1-3.4v-10.2c0-2.2-0.7-3.4-2.1-3.4c-1.4,0-2.1,1.1-2.1,3.4v10.2C-382.1,265.1-381.4,266.2-380,266.2z
		 M-368.7,290.6c-1.6,0-3.1,0.9-4.5,2.6v-10.6h-4.4V315h4.4v-2.3c1.5,1.8,3,2.7,4.5,2.7c1.7,0,2.9-0.9,3.5-2.7
		c0.3-1,0.4-2.6,0.4-4.8v-9.6c0-2.3-0.1-3.9-0.4-4.8C-365.8,291.5-366.9,290.6-368.7,290.6z M-369.1,308.1c0,2.2-0.6,3.2-1.9,3.2
		c-0.7,0-1.4-0.3-2.2-1.1v-14.7c0.7-0.7,1.5-1.1,2.2-1.1c1.3,0,1.9,1.1,1.9,3.3V308.1z M-354.8,290.6c-2.2,0-4,0.8-5.2,2.5
		c-0.9,1.2-1.3,3.1-1.3,5.7v8.4c0,2.6,0.5,4.5,1.4,5.7c1.3,1.6,3,2.5,5.3,2.5c2.3,0,4.1-0.9,5.3-2.6c0.5-0.8,0.9-1.7,1-2.6
		c0-0.4,0.1-1.4,0.1-2.8v-0.6h-4.5c0,1.8-0.1,2.7-0.1,3c-0.2,1.2-0.9,1.7-1.9,1.7c-1.5,0-2.2-1.1-2.2-3.3v-4.3h8.7v-5
		c0-2.6-0.4-4.5-1.4-5.7C-350.9,291.5-352.6,290.6-354.8,290.6z M-352.6,300.1h-4.4v-2.2c0-2.2,0.7-3.3,2.2-3.3
		c1.4,0,2.2,1.1,2.2,3.3V300.1z"/>
	<path d="M-338.7,231h-80.6c-5.3,0-9.7,4.4-9.7,9.7v80.6c0,5.3,4.4,9.7,9.7,9.7h80.6c5.3,0,9.7-4.4,9.7-9.7v-80.6
		C-329,235.4-333.4,231-338.7,231z M-369.9,245.5h4.4v17.9c0,1,0,1.6,0.1,1.7c0.1,0.7,0.4,1,1,1c0.9,0,1.8-0.7,2.8-2.1v-18.6h4.4
		v24.3h-4.4v-2.7c-1.8,2-3.4,3-5,3c-1.4,0-2.4-0.6-2.8-1.8c-0.2-0.7-0.4-1.9-0.4-3.6V245.5z M-386.5,253.5c0-2.6,0.4-4.5,1.4-5.7
		c1.2-1.7,2.9-2.5,5.1-2.5c2.2,0,3.9,0.8,5.1,2.5c0.9,1.2,1.4,3.1,1.4,5.7v8.5c0,2.6-0.4,4.5-1.4,5.7c-1.2,1.7-2.9,2.5-5.1,2.5
		c-2.2,0-3.9-0.8-5.1-2.5c-0.9-1.2-1.4-3.1-1.4-5.7V253.5z M-398.3,237.2l3.5,12.8l3.3-12.8h4.9l-5.9,19.4v13.2h-4.9v-13.2
		c-0.4-2.3-1.4-5.8-3-10.3c-1-3-2.1-6.1-3.1-9.1C-403.4,237.2-398.3,237.2-398.3,237.2z M-344.2,316.4c-0.9,3.8-4,6.7-7.8,7.1
		c-9,1-18,1-27,1c-9,0-18.1,0-27-1c-3.8-0.4-6.9-3.3-7.8-7.1c-1.3-5.5-1.3-11.4-1.3-17.1c0-5.6,0-11.6,1.3-17.1
		c0.9-3.8,4-6.7,7.8-7.1c8.9-1,18-1,27-1c9,0,18.1,0,27,1c3.8,0.4,6.9,3.3,7.8,7.1c1.3,5.5,1.3,11.4,1.3,17.1
		C-342.9,305-342.9,311-344.2,316.4z"/>
</g>
</svg>
