<?xml version="1.0" encoding="utf-8"?>
<!-- Generator: Adobe Illustrator 19.0.0, SVG Export Plug-In . SVG Version: 6.00 Build 0)  -->
<svg version="1.1" id="Capa_1" xmlns="http://www.w3.org/2000/svg" xmlns:xlink="http://www.w3.org/1999/xlink" x="0px" y="0px"
	 viewBox="-415 217 128 128" style="enable-background:new -415 217 128 128;" xml:space="preserve">
<path d="M-298.3,262.1c-5.1-3.9-12.3-5.8-21.1-5.8c-9.6,0-16.4,2.2-19.9,6.8c-1.6-1.8-3.7-3.2-6-4.2c-2.4-2.5-5-4-7.6-4.7
	c5.8-3.7,12.5-8.7,21-15.4c-34.7,3.6-51.5,6.9-81.2,24.9c1.2,0,2.4,0,3.5,0c-0.7,5.6-0.3,13.9-0.2,16.3c-4,10.2-0.4,18.5,2.6,25.9
	c0-9,0.4-16.2-2.1-25.6l20.3-16.1c-0.3,3-0.3,6.6,0.3,10.8l0.1,0l-0.2,1.2l0.9,0.2c-0.2,1.5,0,3.1,0,4.7V323h18v-39.6
	c0-2,0.6-3.7,1.1-5.2c2.8-0.5,5.6-1.3,8.2-2.3l0.2,0.4c0.2-0.2,0.4-0.4,0.5-0.7c2-0.9,4.2-2,6-3.3c3.3,1.7,5.1,5.4,5.1,11.1V323h21
	v-39.6c0-8.1,2.4-12.2,9-12.2s9,4.1,9,12.2V323h21v-41.8C-289,272.7-292.4,266.5-298.3,262.1z"/>
</svg>
