<?xml version="1.0" encoding="utf-8"?>
<!-- Generator: Adobe Illustrator 19.0.0, SVG Export Plug-In . SVG Version: 6.00 Build 0)  -->
<svg version="1.1" id="Capa_1" xmlns="http://www.w3.org/2000/svg" xmlns:xlink="http://www.w3.org/1999/xlink" x="0px" y="0px"
	 viewBox="-223 25 512 512" style="enable-background:new -223 25 512 512;" xml:space="preserve">
<style type="text/css">
	.st0{fill:#FFFFFF;}
</style>
<path d="M-223,25h512v512h-512"/>
<path class="st0" d="M-85,111c-25,0-44,20-44,43v127c-8-4-14-6-15-3c-3,7,3,13,15,27c12,15,63,34,63,34v59c0,17,37,43,56,43
	s33-13,33-21v-55l12,4v51c0,8,12,31,51,31s49-45,49-53v-54c29-15,57-23,70-47c12-24,2-28-9-17V154c0-23-20-43-45-43H-85z M-85,132
	h236c13,0,23,10,23,22v140c-19,9-45,17-49,17H69c-17,0-34-1-34,17c-14-9-14-16-37-15c-16,0-56-3-78-8c-8-2-18-7-28-13V154
	C-108,142-98,132-85,132z M-17,217c-21,0-39,17-39,38s18,38,39,38c22,0,39-17,39-38S5,217-17,217z M87,217c-21,0-39,17-39,38
	s18,38,39,38c22,0,39-17,39-38S109,217,87,217z"/>
</svg>
