<?xml version="1.0" encoding="utf-8"?>
<svg version="1.1" id="Cuba-logo" xmlns="http://www.w3.org/2000/svg" xmlns:xlink="http://www.w3.org/1999/xlink" x="0px" y="0px"
	 viewBox="-444 258 70.2 44.2" style="enable-background:new -444 258 70.2 44.2;" xml:space="preserve">
<style type="text/css">
	.st0{opacity:0.5;fill:#FF0000;}
</style>
<path id="Cuba-logo_1_" class="st0" d="M-442.9,258c-1.1,0-1.4,0.7-0.8,1.6l33.5,41.9c0.7,0.9,1.8,0.9,2.5,0l33.5-41.9
	c0.7-0.9,0.3-1.6-0.8-1.6H-442.9z M-402,275.9c-0.9,0.6-1.7,1.3-2.6,1.9c-0.1,0.1-0.2,0.2-0.1,0.4c0.7,2.1,1.3,4.3,1.9,6.4v0.1
	c0,0.1,0,0.2-0.1,0.2s-0.2,0-0.3,0c-0.4-0.2-0.7-0.5-1.1-0.8c-1.5-1-3-2.1-4.5-3.1c-0.2-0.1-0.3-0.1-0.4,0c-1,0.7-2,1.4-3,2.1
	c-0.9,0.6-1.7,1.2-2.6,1.8c-0.1,0.1-0.2,0.1-0.3,0s-0.1-0.2-0.1-0.3c0.4-1.4,0.8-2.7,1.2-4.1c0.2-0.8,0.5-1.6,0.7-2.4
	c0-0.1,0-0.1,0-0.1c0-0.1,0-0.2,0-0.3c0,0,0,0-0.1-0.1c-0.8-0.6-1.6-1.2-2.5-1.9c-0.9-0.7-1.8-1.4-2.8-2.1c-0.1-0.1-0.2-0.1-0.3-0.2
	s-0.1-0.2-0.1-0.2c0-0.1,0.1-0.2,0.2-0.2c0.7,0,1.4,0,2.1,0c1.6,0,3.3-0.1,4.9-0.1c0.2,0,0.2-0.1,0.3-0.2c0.4-1,0.7-2.1,1.1-3.1
	c0.4-1.1,0.7-2.2,1.1-3.2c0-0.1,0.1-0.3,0.3-0.3s0.2,0.1,0.3,0.2c0.7,2.1,1.5,4.2,2.2,6.3c0.1,0.3,0.1,0.3,0.4,0.3
	c1.3,0,2.6,0.1,4,0.1c0.9,0,1.9,0,2.8,0.1c0.1,0,0.2,0,0.3,0.2c0,0.1,0,0.2-0.1,0.3C-400.1,274.4-401.1,275.2-402,275.9z"/>
</svg>
